<svg width="115" height="85" viewBox="0 0 115 85" fill="none" xmlns="http://www.w3.org/2000/svg">
<circle cx="85" cy="30" r="30" fill="#FFEC3E"/>
<path d="M22.5 85C16.2633 85 10.955 82.8233 6.575 78.47C2.19167 74.1233 0 68.8283 0 62.585C0 56.855 1.95833 51.77 5.875 47.33C9.79167 42.89 14.66 40.505 20.48 40.175C21.6033 32.8917 24.9533 26.875 30.53 22.125C36.1067 17.375 42.5967 15 50 15C58.34 15 65.425 17.915 71.255 23.745C77.085 29.575 80 36.66 80 45V50H83.08C87.8667 50.1533 91.8833 51.9117 95.13 55.275C98.3767 58.6383 100 62.7133 100 67.5C100 72.4033 98.31 76.5467 94.93 79.93C91.5433 83.31 87.4 85 82.5 85H22.5Z" fill="white"/>
</svg>
